# xmcd
#
# Track frame offsets:
#	150
#	12546
#	26502
#	38817
#	51143
#	63526
#	74543
#	85791
#	97390
#	108393
#
# Disc length: 1602 seconds
#
# Revision: 0
# Processed by: cddbd v1.5.1PL0 Copyright (c) Steve Scherf et al.
# Submitted via: dBpowerAMP V4.0
#
DISCID=8a06400a
DTITLE=Hank Williams - Your Cheatin' Heart
DYEAR=2005
DGENRE=Country
TTITLE0=Your Cheatin' Heart
TTITLE1=Ramblin' Man
TTITLE2=The Lost Highway
TTITLE3=I Saw The Light
TTITLE4=Half As Much
TTITLE5=I Can't Help It If I'm Still In Love With You
TTITLE6=Crazy Heart
TTITLE7=Kaw-Linga
TTITLE8=I'll Never Get Out Of This World Alive
TTITLE9=Settin' The Woods On Fire
EXTD=
EXTT0=
EXTT1=
EXTT2=
EXTT3=
EXTT4=
EXTT5=
EXTT6=
EXTT7=
EXTT8=
EXTT9=
PLAYORDER=
